{
    "asset" : {
        "generator" : "Khronos glTF Blender I/O v1.7.33",
        "version" : "2.0"
    },
    "scene" : 0,
    "scenes" : [
        {
            "name" : "Scene",
            "nodes" : [
                0
            ]
        }
    ],
    "nodes" : [
        {
            "mesh" : 0,
            "name" : "Cylinder.008",
            "rotation" : [
                0,
                0,
                -0.3826834559440613,
                0.9238795042037964
            ],
            "scale" : [
                0.10000000149011612,
                1.5,
                0.10000000149011612
            ],
            "translation" : [
                -8.177069664001465,
                -1.3077589273452759,
                0.16159427165985107
            ]
        }
    ],
    "materials" : [
        {
            "doubleSided" : true,
            "name" : "ConnectorColor",
            "pbrMetallicRoughness" : {
                "baseColorFactor" : [
                    0.11068835854530334,
                    0.11068835854530334,
                    0.11068835854530334,
                    1
                ],
                "metallicFactor" : 0,
                "roughnessFactor" : 0.5
            }
        },
        {
            "doubleSided" : true,
            "name" : "SphereColor",
            "pbrMetallicRoughness" : {
                "baseColorFactor" : [
                    0.011612266302108765,
                    0.14702731370925903,
                    0.5271151661872864,
                    1
                ],
                "metallicFactor" : 0,
                "roughnessFactor" : 0.5
            }
        }
    ],
    "meshes" : [
        {
            "name" : "Cylinder.009",
            "primitives" : [
                {
                    "attributes" : {
                        "POSITION" : 0,
                        "NORMAL" : 1,
                        "TEXCOORD_0" : 2
                    },
                    "indices" : 3,
                    "material" : 0
                },
                {
                    "attributes" : {
                        "POSITION" : 4,
                        "NORMAL" : 5,
                        "TEXCOORD_0" : 6
                    },
                    "indices" : 7,
                    "material" : 1
                }
            ]
        }
    ],
    "accessors" : [
        {
            "bufferView" : 0,
            "componentType" : 5126,
            "count" : 1728,
            "max" : [
                114.98464965820312,
                6.813161373138428,
                1.000000238418579
            ],
            "min" : [
                -2.8538990020751953,
                -1,
                -1.0000001192092896
            ],
            "type" : "VEC3"
        },
        {
            "bufferView" : 1,
            "componentType" : 5126,
            "count" : 1728,
            "type" : "VEC3"
        },
        {
            "bufferView" : 2,
            "componentType" : 5126,
            "count" : 1728,
            "type" : "VEC2"
        },
        {
            "bufferView" : 3,
            "componentType" : 5123,
            "count" : 3348,
            "type" : "SCALAR"
        },
        {
            "bufferView" : 4,
            "componentType" : 5126,
            "count" : 5590,
            "max" : [
                133.9662628173828,
                7.4383440017700195,
                9.999995231628418
            ],
            "min" : [
                -12.231643676757812,
                -2.3213605880737305,
                -9.999988555908203
            ],
            "type" : "VEC3"
        },
        {
            "bufferView" : 5,
            "componentType" : 5126,
            "count" : 5590,
            "type" : "VEC3"
        },
        {
            "bufferView" : 6,
            "componentType" : 5126,
            "count" : 5590,
            "type" : "VEC2"
        },
        {
            "bufferView" : 7,
            "componentType" : 5123,
            "count" : 28800,
            "type" : "SCALAR"
        }
    ],
    "bufferViews" : [
        {
            "buffer" : 0,
            "byteLength" : 20736,
            "byteOffset" : 0
        },
        {
            "buffer" : 0,
            "byteLength" : 20736,
            "byteOffset" : 20736
        },
        {
            "buffer" : 0,
            "byteLength" : 13824,
            "byteOffset" : 41472
        },
        {
            "buffer" : 0,
            "byteLength" : 6696,
            "byteOffset" : 55296
        },
        {
            "buffer" : 0,
            "byteLength" : 67080,
            "byteOffset" : 61992
        },
        {
            "buffer" : 0,
            "byteLength" : 67080,
            "byteOffset" : 129072
        },
        {
            "buffer" : 0,
            "byteLength" : 44720,
            "byteOffset" : 196152
        },
        {
            "buffer" : 0,
            "byteLength" : 57600,
            "byteOffset" : 240872
        }
    ],
    "buffers" : [
        {
            "byteLength" : 298472,
            "uri" : "data:application/octet-stream;base64,"
        }
    ]
}
